<svg width="48" height="51" viewBox="0 0 48 51" fill="none" xmlns="http://www.w3.org/2000/svg">
<path d="M27.1647 3.70969C28.0138 5.17037 28.5953 8.79302 28.9006 13.59H34.3259V8.49839C34.2088 8.44445 34.0959 8.38221 33.9871 8.31166C33.7821 8.18302 33.5939 8.03363 33.4308 7.8718L33.4099 7.85105C33.1212 7.56472 32.8912 7.2203 32.7322 6.83853C32.5733 6.46091 32.4854 6.04595 32.4854 5.61024C32.4854 5.17867 32.5733 4.76786 32.7322 4.38609C32.8953 3.99187 33.138 3.63915 33.4308 3.34452C33.7278 3.0499 34.0833 2.81337 34.4807 2.65153C34.8613 2.49384 35.2796 2.4067 35.7147 2.4067C36.1497 2.4067 36.5638 2.49384 36.9486 2.65153C37.346 2.81337 37.7016 3.05405 37.9986 3.34452C38.2955 3.63915 38.534 3.99187 38.6971 4.38194L38.7055 4.40684C38.8561 4.7803 38.9397 5.18697 38.9397 5.60609C38.9397 6.03765 38.8519 6.44847 38.6929 6.83023C38.5298 7.22445 38.2872 7.57717 37.9944 7.8718L37.9693 7.8967C37.8229 8.03778 37.6597 8.17057 37.4882 8.28261C37.3962 8.34486 37.3 8.3988 37.1996 8.45275V15.0258C37.1996 15.42 37.0365 15.7769 36.7771 16.0342C36.5178 16.2914 36.1581 16.4533 35.7607 16.4533H29.0428C29.093 17.8185 29.1265 19.2543 29.1391 20.7357H41.872C41.9263 20.6278 41.9849 20.5241 42.0477 20.4245L42.0644 20.4038C42.1857 20.217 42.3279 20.0469 42.4785 19.8975C42.7755 19.6029 43.131 19.3663 43.5284 19.2045L43.5535 19.1962C43.93 19.0468 44.3399 18.9597 44.7624 18.9597C45.1974 18.9597 45.6115 19.0468 45.9964 19.2045C46.3937 19.3663 46.7493 19.607 47.0463 19.8975C47.3433 20.1921 47.5817 20.5448 47.7448 20.9391C47.9038 21.3208 47.9916 21.7316 47.9916 22.1632C47.9916 22.5948 47.9038 23.0056 47.7448 23.3874C47.5817 23.7816 47.3391 24.1343 47.0463 24.4289C46.7493 24.7235 46.3937 24.9601 45.9964 25.1219L45.9713 25.1302C45.5948 25.2796 45.1849 25.3626 44.7624 25.3626C44.3274 25.3626 43.9091 25.2754 43.5284 25.1178C43.1352 24.9559 42.7797 24.7194 42.4785 24.4248C42.3195 24.2671 42.1773 24.0928 42.0518 23.8978C41.9849 23.7982 41.9263 23.6944 41.872 23.5865H29.1432C29.1307 25.2049 29.0972 26.8606 29.0428 28.5454H44.6076C45.005 28.5454 45.3647 28.7072 45.6241 28.9645C45.8834 29.2218 46.0466 29.5786 46.0466 29.9729V40.5669C46.1846 40.625 46.3143 40.6914 46.4398 40.7661C46.6656 40.8989 46.8706 41.0607 47.0546 41.2433C47.3516 41.5379 47.5901 41.8907 47.7532 42.2849L47.7616 42.3098C47.9122 42.6833 48 43.0899 48 43.509C48 43.9406 47.9122 44.3514 47.7532 44.7332C47.5901 45.1274 47.3475 45.4801 47.0546 45.7747C46.7577 46.0694 46.4021 46.3059 46.0047 46.4677C45.6241 46.6254 45.2058 46.7126 44.7708 46.7126C44.3357 46.7126 43.9216 46.6254 43.5368 46.4677C43.1394 46.3059 42.7839 46.0652 42.4869 45.7747C42.1899 45.4801 41.9514 45.1274 41.7883 44.7332C41.6294 44.3556 41.5415 43.9406 41.5415 43.509C41.5415 43.0775 41.6294 42.6625 41.7883 42.2849C41.9514 41.8907 42.1941 41.5379 42.4869 41.2433C42.6207 41.1105 42.7713 40.986 42.9303 40.874C43.0055 40.8201 43.085 40.7703 43.1687 40.7246V31.4045H28.9299C28.8672 32.749 28.7919 34.0976 28.6998 35.4421H33.3178C33.7152 35.4421 34.0749 35.6039 34.3343 35.8612C34.5936 36.1185 34.7568 36.4754 34.7568 36.8696V42.538C34.8613 42.592 34.9575 42.6501 35.0579 42.7123C35.2504 42.8368 35.4219 42.9779 35.5766 43.1314L35.6017 43.1563C35.8862 43.4468 36.1204 43.7912 36.2794 44.173C36.4383 44.5506 36.5262 44.9656 36.5262 45.3971C36.5262 45.8287 36.4383 46.2436 36.2794 46.6213L36.2668 46.6462C36.1037 47.0321 35.8652 47.3765 35.5766 47.6628L35.5557 47.6836C35.2629 47.9699 34.9157 48.2023 34.5351 48.36C34.1544 48.5177 33.7319 48.6048 33.2969 48.6048C32.8619 48.6048 32.4478 48.5177 32.0629 48.36C31.6656 48.1981 31.31 47.9575 31.013 47.667L30.9879 47.6421C30.7035 47.3516 30.4692 47.0072 30.3103 46.6254C30.1513 46.2436 30.0635 45.8328 30.0635 45.4013C30.0635 44.9697 30.1513 44.5589 30.3103 44.1771C30.4734 43.7829 30.7118 43.4302 31.0088 43.1356C31.172 42.9737 31.356 42.8285 31.5484 42.704C31.653 42.6376 31.7618 42.5754 31.8747 42.5214V38.3012H28.4865C28.4405 38.8697 28.3903 39.4382 28.3401 40.0026C28.2732 40.7329 28.0599 42.0815 28.1979 42.7496C28.566 44.5215 26.9556 49.8663 22.2204 50.8498C19.8864 51.3311 17.4728 50.6215 15.6532 49.2107C14.1975 48.0861 13.1058 46.5051 12.7126 44.7166C11.9513 44.6875 11.1775 44.534 10.4245 44.285C8.7597 43.729 7.15763 42.6459 5.90693 41.2101C4.64786 39.7702 3.73597 37.9609 3.44735 35.9484C3.30095 34.8985 3.32186 33.803 3.55611 32.6743C2.74043 31.9398 2.03769 31.114 1.48136 30.2135C0.510916 28.674 -0.0203198 26.9395 0.000594939 25.1551C0.0215097 23.3583 0.598758 21.5366 1.84946 19.8435C2.5773 18.8601 3.53519 17.9223 4.74825 17.0633C4.7357 16.7355 4.7357 16.4076 4.74407 16.084C4.84027 13.4614 5.8149 11.1542 7.23711 9.43207C8.70951 7.64772 10.6797 6.48166 12.7042 6.19534H12.7126C12.7837 5.90071 12.8674 5.61024 12.9761 5.32806C13.6287 3.57276 14.9714 2.07888 16.6153 1.12861C18.2717 0.174188 20.2586 -0.249076 22.1954 0.14929C24.0568 0.539358 25.8303 1.64317 27.1647 3.70969ZM12.8715 41.1769C13.5576 39.0357 15.3688 36.8986 18.7862 35.1682C19.6396 34.7408 20.6769 35.0728 21.1161 35.9152C21.547 36.7617 21.2124 37.7908 20.3632 38.2265C17.1967 39.8324 16.0046 41.6749 16.0046 43.2808C16.0046 44.534 16.724 45.7042 17.7698 46.5175C18.8323 47.335 20.2043 47.7624 21.501 47.4968C23.1156 47.1649 24.6717 45.6834 25.479 42.455V8.51084C24.6717 5.30731 23.1156 3.83418 21.5052 3.50221C20.4427 3.28228 19.3133 3.53126 18.3512 4.09146C17.3766 4.65167 16.5944 5.51479 16.2221 6.51071C15.7285 7.8386 16.0213 9.46941 17.6945 11.0048C18.3889 11.648 18.4349 12.7227 17.7865 13.4116C17.1382 14.1004 16.0548 14.1461 15.3604 13.5029C14.0595 12.3078 13.2564 11.038 12.8548 9.77234C11.83 10.0172 10.8177 10.6894 9.99786 11.677C9.03996 12.8348 8.38324 14.4034 8.31631 16.2043C8.29958 16.6815 8.32468 17.1878 8.39579 17.7065H8.3916C8.48363 18.3787 8.18245 19.0759 7.56338 19.4535C6.30849 20.217 5.38406 21.0594 4.7357 21.935C3.9493 22.9973 3.58957 24.1135 3.57702 25.1883C3.56447 26.2797 3.90329 27.3669 4.50982 28.342C5.02432 29.1678 5.72706 29.9231 6.58457 30.5538C7.22874 30.9937 7.52991 31.8153 7.26639 32.583C6.92757 33.5789 6.85227 34.5458 6.98195 35.4463C7.166 36.7409 7.77252 37.9236 8.60075 38.8739C9.43316 39.8283 10.4873 40.542 11.5665 40.9072C12.0015 41.0732 12.4407 41.1562 12.8715 41.1769ZM13.2647 17.0633C13.9424 16.4035 15.03 16.4118 15.6992 17.084C16.3643 17.7563 16.3559 18.8352 15.6783 19.4991C14.2017 20.9432 13.4321 22.8023 13.3484 24.7028C13.2689 26.6614 13.9089 28.6782 15.2558 30.3339C15.854 31.0684 15.7327 32.1431 14.9923 32.7365C14.2519 33.3299 13.1685 33.2096 12.5704 32.4751C10.6839 30.1554 9.78871 27.3337 9.90165 24.5659C10.023 21.8188 11.1356 19.1381 13.2647 17.0633Z" fill="#B3C7FF"/>
</svg>
