<svg width="45" height="31" viewBox="0 0 45 31" fill="none" xmlns="http://www.w3.org/2000/svg">
<path d="M28.125 15.5C28.125 18.6013 25.6013 21.125 22.5 21.125C19.3987 21.125 16.875 18.6013 16.875 15.5C16.875 12.3987 19.3987 9.875 22.5 9.875C25.6013 9.875 28.125 12.3987 28.125 15.5ZM45 14.6581C45 14.6581 37.0275 30.5 22.5281 30.5C9.06563 30.5 0 14.6581 0 14.6581C0 14.6581 8.33625 0.5 22.5281 0.5C36.9544 0.5 45 14.6581 45 14.6581ZM31.875 15.5C31.875 10.3306 27.6694 6.125 22.5 6.125C17.3306 6.125 13.125 10.3306 13.125 15.5C13.125 20.6694 17.3306 24.875 22.5 24.875C27.6694 24.875 31.875 20.6694 31.875 15.5Z" fill="#B2C7FF"/>
</svg>
