<svg width="42" height="38" viewBox="0 0 42 38" fill="none" xmlns="http://www.w3.org/2000/svg">
<path d="M26.1778 26.125L34.0633 16.625L42 26.125H36.75V28.5C36.75 32.4294 33.2181 35.625 28.875 35.625H13.125C8.78194 35.625 5.25 32.4294 5.25 28.5V26.125H10.5V28.5C10.5 29.8086 11.6786 30.875 13.125 30.875H28.875C30.3214 30.875 31.5 29.8086 31.5 28.5V26.125H26.1778Z" fill="#B2C7FF"/>
<path d="M15.8222 11.875L7.93669 21.375L0 11.875H5.25V9.5C5.25 5.57056 8.78194 2.375 13.125 2.375H28.875C33.2181 2.375 36.75 5.57056 36.75 9.5V11.875H31.5V9.5C31.5 8.19138 30.3214 7.125 28.875 7.125H13.125C11.6786 7.125 10.5 8.19138 10.5 9.5V11.875H15.8222Z" fill="#B2C7FF"/>
</svg>
