<svg width="46" height="51" viewBox="0 0 46 51" fill="none" xmlns="http://www.w3.org/2000/svg">
<path d="M16.1347 42.8394C15.9871 42.2844 15.5373 41.8549 14.9882 41.7447C14.3487 41.6169 13.6497 41.6289 12.8999 41.7826L12.8642 41.7914C10.9695 42.2547 7.71801 42.5708 6.52628 41.5413C6.46201 41.4874 6.40171 41.4246 6.34617 41.3523C6.12243 41.0716 6.02166 40.7032 6.04546 40.2584C6.1859 39.8136 6.69449 37.9236 5.72254 36.4967C5.63129 36.3592 5.52497 36.2289 5.39644 36.0946L5.35201 36.0504C5.29171 35.9933 5.0021 35.6812 5.24093 35.1431L5.55592 34.4337L5.07589 33.8241C4.77439 33.442 4.6046 33.0528 4.63316 32.8091C4.64585 32.7021 4.69346 32.6168 4.78708 32.5324C5.05685 32.2903 5.21157 31.942 5.21157 31.5769V31.1948C5.21157 30.6174 4.82676 30.1107 4.27691 29.9627C3.73738 29.8155 3.26608 29.6217 2.9138 29.4005C2.55596 29.1769 2.3219 28.7796 2.28858 28.338C2.26795 28.067 2.32587 27.7983 2.4552 27.5603L5.52418 21.9278C5.63447 21.7637 6.32078 20.5983 6.0169 17.4471C6.00579 17.3345 6.0169 17.2396 6.02563 17.1632C6.0288 17.135 6.03118 17.1101 6.03198 17.0988L6.17797 15.7597L6.18669 15.6978C6.88729 12.0977 9.40722 5.69477 18.4126 3.22801H18.4769L18.7443 3.13954C18.7594 3.13391 18.7752 3.12828 18.7887 3.12506L18.972 3.08565C20.4494 2.78565 22.0339 2.6264 23.6778 2.61272H23.8199C24.6506 2.61272 25.4773 2.67063 26.27 2.78484C27.5744 3.00039 28.8534 3.36796 30.0737 3.87546C32.8769 5.04249 35.3555 6.91569 37.3177 9.33339C39.072 9.37441 40.4446 9.61248 41 9.72427C38.292 5.38592 34.0107 2.09315 28.8486 0.754006L28.8082 0.741942H28.801C25.4718 -0.198276 21.8752 -0.245729 18.3976 0.604408C18.2794 0.624515 18.1588 0.653469 18.0524 0.688858L17.8263 0.74918C17.5089 0.834435 17.1868 0.928537 16.8488 1.03551C14.4899 1.69261 12.3651 2.69315 10.5339 4.01139C7.22529 6.39209 4.97751 9.78621 4.0365 13.8189C3.73976 14.9248 3.53267 16.0911 3.43905 17.1841C3.38748 17.6256 3.3962 18.0696 3.46602 18.5417C3.50649 18.8128 3.52474 19.0589 3.52315 19.2937V19.313C3.5168 20.0554 3.32638 20.7913 2.97251 21.4404L0.640623 25.7192C0.241528 26.4511 0.0201607 27.2804 0.00111842 28.1168C-0.0361728 29.7326 0.861989 31.2343 2.25922 31.9316C2.19892 32.119 2.15607 32.3128 2.13306 32.5107C2.04579 33.2643 2.24335 34.0662 2.70592 34.8375C2.50836 35.7874 2.72655 36.7839 3.29782 37.5399V40.7917C3.27163 41.567 3.54775 42.3013 4.07538 42.8611C4.29595 43.0935 4.55144 43.2858 4.8339 43.4338C4.84897 43.4474 4.86405 43.4611 4.87912 43.474L4.8942 43.4868C6.005 44.4448 7.7315 44.8751 10.0309 44.7649C11.6233 44.6901 13.0364 44.3724 13.4236 44.2791C13.6021 44.2429 13.7751 44.2204 13.9417 44.2123L15.2318 49.0743C15.3405 49.4836 15.6428 49.807 16.0403 49.9381C16.1664 49.9799 16.2958 50 16.4251 50C16.702 50 16.9734 49.9051 17.1963 49.7241C17.578 49.4137 17.743 48.9029 17.6153 48.4236L16.1347 42.8394Z" fill="#B2C7FF"/>
<path d="M33.0916 28.8267C33.7482 28.9323 34.8429 29.0687 36.1211 29.0687C38.5067 29.0687 41.5323 28.5937 43.5325 26.5578C47.2028 22.8232 45.7107 15.5812 45.6453 15.2751C45.548 14.8171 45.1969 14.4598 44.7477 14.3607C44.4461 14.2941 37.3323 12.7764 33.662 16.511C30.5886 19.6383 31.1344 25.2236 31.432 27.1376L29.7692 28.8316V20.7589C29.7692 20.0995 29.2434 19.5644 28.5955 19.5644C27.9477 19.5644 27.4219 20.0995 27.4219 20.7589V34.0247L26.3806 32.965C26.6296 31.2702 27.007 26.7487 24.4769 24.1736C21.3868 21.0277 15.4434 22.2962 15.1913 22.3522C14.7421 22.4513 14.391 22.8086 14.2937 23.2658C14.2394 23.5216 12.9931 29.5714 16.0833 32.7157C17.774 34.4364 20.3184 34.836 22.3179 34.836C23.3104 34.836 24.1681 34.7377 24.7203 34.6533L27.4211 37.4013V50.5339L29.7676 51V46.6693L32.4413 43.9481C32.9934 44.0325 33.8511 44.1308 34.8437 44.1308C36.8424 44.1308 39.3884 43.7304 41.0791 42.0097C44.1692 38.8646 42.9238 32.8156 42.8687 32.5598C42.7714 32.1018 42.4203 31.7453 41.9711 31.6454C41.7198 31.5902 35.7764 30.3225 32.6854 33.4668C30.1562 36.0419 30.5328 40.5634 30.7817 42.2582L29.7676 43.2911V32.2098L33.0916 28.8267ZM33.5631 24.9703C33.4522 22.7582 33.7179 19.8324 35.3216 18.2001C37.4966 15.9865 41.7429 16.317 43.4807 16.5646C43.724 18.3349 44.048 22.6559 41.8738 24.8688C40.191 26.5814 37.2692 26.7706 35.2267 26.6545C33.4354 26.6545 33.5631 24.9703 33.5631 24.9703ZM22.5532 32.4461C20.8913 32.4729 18.8894 32.1919 17.7437 31.0258C16.203 29.4577 16.2357 26.3142 16.4599 24.5545C18.1905 24.3263 21.2774 24.293 22.8181 25.8611C23.9647 27.028 24.2399 29.0655 24.2136 30.757C24.2128 32.4493 22.5532 32.4461 22.5532 32.4461ZM32.9511 40.0518C32.9256 38.3595 33.2001 36.3228 34.3466 35.1567C35.8881 33.5878 38.9783 33.6219 40.7073 33.8501C40.9347 35.6074 40.9706 38.7452 39.4219 40.3214C38.2761 41.4875 36.2743 41.7685 34.6123 41.7409C32.9495 41.7417 32.9511 40.0518 32.9511 40.0518Z" fill="#B2C7FF"/>
</svg>
