{
	"asset":{
		"generator":"Khronos glTF Blender I/O v3.5.30",
		"version":"2.0"
	},
	"extensionsUsed":[
		"KHR_materials_specular",
		"KHR_materials_ior"
	],
	"scene":0,
	"scenes":[
		{
			"name":"Scene",
			"nodes":[
				0
			]
		}
	],
	"nodes":[
		{
			"mesh":0,
			"name":"MaleHead",
			"rotation":[
				0.7071068286895752,
				0,
				0,
				0.7071068286895752
			]
		}
	],
	"materials":[
		{
			"doubleSided":true,
			"extensions":{
				"KHR_materials_specular":{
					"specularColorFactor":[
						0,
						0,
						0
					]
				},
				"KHR_materials_ior":{
					"ior":1.4500000476837158
				}
			},
			"name":"defaultMat",
			"pbrMetallicRoughness":{
				"baseColorTexture":{
					"index":0
				},
				"metallicFactor":0
			}
		}
	],
	"meshes":[
		{
			"name":"MaleHead",
			"primitives":[
				{
					"attributes":{
						"COLOR_0":0,
						"POSITION":1,
						"TEXCOORD_0":2,
						"NORMAL":3
					},
					"indices":4,
					"material":0
				}
			]
		}
	],
	"textures":[
		{
			"sampler":0,
			"source":0
		}
	],
	"images":[
		{
			"bufferView":5,
			"mimeType":"image/png",
			"name":"Mynestexture"
		}
	],
	"accessors":[
		{
			"bufferView":0,
			"componentType":5126,
			"count":2082,
			"type":"VEC4"
		},
		{
			"bufferView":1,
			"componentType":5126,
			"count":2082,
			"max":[
				1.933457374572754,
				1.4111948013305664,
				0.39646148681640625
			],
			"min":[
				-1.9335300922393799,
				-2.4407389163970947,
				-4.662393569946289
			],
			"type":"VEC3"
		},
		{
			"bufferView":2,
			"componentType":5126,
			"count":2082,
			"type":"VEC2"
		},
		{
			"bufferView":3,
			"componentType":5126,
			"count":2082,
			"type":"VEC3"
		},
		{
			"bufferView":4,
			"componentType":5123,
			"count":11154,
			"type":"SCALAR"
		}
	],
	"bufferViews":[
		{
			"buffer":0,
			"byteLength":33312,
			"byteOffset":0,
			"target":34962
		},
		{
			"buffer":0,
			"byteLength":24984,
			"byteOffset":33312,
			"target":34962
		},
		{
			"buffer":0,
			"byteLength":16656,
			"byteOffset":58296,
			"target":34962
		},
		{
			"buffer":0,
			"byteLength":24984,
			"byteOffset":74952,
			"target":34962
		},
		{
			"buffer":0,
			"byteLength":22308,
			"byteOffset":99936,
			"target":34963
		},
		{
			"buffer":0,
			"byteLength":370166,
			"byteOffset":122244
		}
	],
	"samplers":[
		{
			"magFilter":9729,
			"minFilter":9987
		}
	],
	"buffers":[
		{
			"byteLength":492412,
			"uri":"data:application/octet-stream;base64,"
		}
	]
}
