<svg width="46" height="47" viewBox="0 0 46 47" fill="none" xmlns="http://www.w3.org/2000/svg">
<mask id="path-1-inside-1_1785_139" fill="white">
<path d="M38.875 15.5261C38.875 13.4872 38.464 11.4682 37.6657 9.58453C36.8673 7.70081 35.6971 5.98923 34.2219 4.54749C32.7466 3.10576 30.9953 1.96211 29.0678 1.18185C27.1404 0.401595 25.0745 -8.91239e-08 22.9883 0C20.902 8.9124e-08 18.8362 0.401595 16.9087 1.18186C14.9812 1.96212 13.2299 3.10576 11.7547 4.54749C10.2795 5.98923 9.10925 7.70081 8.31087 9.58453C7.51248 11.4682 7.10156 13.4872 7.10156 15.5261L22.9883 15.5261H38.875Z"/>
</mask>
<path d="M38.875 15.5261C38.875 13.4872 38.464 11.4682 37.6657 9.58453C36.8673 7.70081 35.6971 5.98923 34.2219 4.54749C32.7466 3.10576 30.9953 1.96211 29.0678 1.18185C27.1404 0.401595 25.0745 -8.91239e-08 22.9883 0C20.902 8.9124e-08 18.8362 0.401595 16.9087 1.18186C14.9812 1.96212 13.2299 3.10576 11.7547 4.54749C10.2795 5.98923 9.10925 7.70081 8.31087 9.58453C7.51248 11.4682 7.10156 13.4872 7.10156 15.5261L22.9883 15.5261H38.875Z" stroke="#B2C7FF" stroke-width="6" mask="url(#path-1-inside-1_1785_139)"/>
<mask id="path-2-inside-2_1785_139" fill="white">
<path d="M37.9493 29.8959C37.9493 32.0261 37.5624 34.1354 36.8106 36.1035C36.0588 38.0716 34.957 39.8598 33.5679 41.3661C32.1788 42.8724 30.5297 44.0672 28.7148 44.8824C26.8999 45.6976 24.9547 46.1172 22.9903 46.1172C21.0258 46.1172 19.0806 45.6976 17.2657 44.8824C15.4508 44.0672 13.8017 42.8724 12.4126 41.3661C11.0236 39.8598 9.9217 38.0716 9.16994 36.1035C8.41818 34.1354 8.03125 32.0261 8.03125 29.8959L10.5818 29.8959C10.5818 31.6629 10.9028 33.4126 11.5264 35.0451C12.1499 36.6776 13.0639 38.1609 14.2162 39.4104C15.3684 40.6598 16.7363 41.6509 18.2418 42.3272C19.7472 43.0034 21.3608 43.3514 22.9903 43.3514C24.6198 43.3514 26.2333 43.0034 27.7388 42.3272C29.2442 41.6509 30.6121 40.6598 31.7644 39.4104C32.9166 38.1609 33.8306 36.6776 34.4542 35.0451C35.0778 33.4126 35.3987 31.6629 35.3987 29.8959H37.9493Z"/>
</mask>
<path d="M37.9493 29.8959C37.9493 32.0261 37.5624 34.1354 36.8106 36.1035C36.0588 38.0716 34.957 39.8598 33.5679 41.3661C32.1788 42.8724 30.5297 44.0672 28.7148 44.8824C26.8999 45.6976 24.9547 46.1172 22.9903 46.1172C21.0258 46.1172 19.0806 45.6976 17.2657 44.8824C15.4508 44.0672 13.8017 42.8724 12.4126 41.3661C11.0236 39.8598 9.9217 38.0716 9.16994 36.1035C8.41818 34.1354 8.03125 32.0261 8.03125 29.8959L10.5818 29.8959C10.5818 31.6629 10.9028 33.4126 11.5264 35.0451C12.1499 36.6776 13.0639 38.1609 14.2162 39.4104C15.3684 40.6598 16.7363 41.6509 18.2418 42.3272C19.7472 43.0034 21.3608 43.3514 22.9903 43.3514C24.6198 43.3514 26.2333 43.0034 27.7388 42.3272C29.2442 41.6509 30.6121 40.6598 31.7644 39.4104C32.9166 38.1609 33.8306 36.6776 34.4542 35.0451C35.0778 33.4126 35.3987 31.6629 35.3987 29.8959H37.9493Z" stroke="#B2C7FF" stroke-width="28" mask="url(#path-2-inside-2_1785_139)"/>
<path d="M5.96239 16.2227H2V29.0669H5.96239V16.2227Z" stroke="#B2C7FF" stroke-width="3" stroke-miterlimit="10" stroke-linecap="round" stroke-linejoin="round"/>
<path d="M43.9975 16.2227H40.0352V29.0669H43.9975V16.2227Z" stroke="#B2C7FF" stroke-width="3" stroke-miterlimit="10" stroke-linecap="round" stroke-linejoin="round"/>
<path d="M36.4812 14.1523H9.52222C7.66879 14.1523 6.15234 15.2841 6.15234 16.6674V27.9849C6.15234 29.3682 7.66879 30.4999 9.52222 30.4999H16.0935C16.9359 30.4999 17.7784 30.2484 18.4524 29.7454L20.4743 28.2364C21.8223 27.2304 23.8442 27.2304 25.1921 28.2364L27.2141 29.7454C27.888 30.2484 28.7305 30.4999 29.573 30.4999H36.4812C38.3346 30.4999 39.8511 29.3682 39.8511 27.9849V16.6674C39.8511 15.2841 38.3346 14.1523 36.4812 14.1523Z" stroke="#B2C7FF" stroke-width="3" stroke-miterlimit="10" stroke-linecap="round" stroke-linejoin="round"/>
</svg>
